<svg width="62" height="70" viewBox="0 0 62 70" fill="none" xmlns="http://www.w3.org/2000/svg">
<path d="M19.4545 63.5649C22.441 68.1373 24.5277 69.0898 25.1977 68.9946C27.4018 56.1098 40.6616 54.3952 42.9086 54.3952C45.3494 54.3952 48.745 54.5631 50.468 54.8489C52.9078 55.2535 56.083 54.224 57.1231 51.9661C57.9848 50.0955 56.0223 47.4414 56.5487 46.6793C56.7402 46.2983 57.8576 45.7173 58.1281 45.1076C58.5085 44.2503 57.6017 43.2024 57.1231 42.6785C57.1231 42.6785 58.7025 41.9641 58.7025 40.821C58.7025 39.6779 56.7427 38.3919 57.9846 37.5346C59.2264 36.6773 60.9998 36.5094 60.9998 34.8198L58.5085 30.819L55.6873 26.5324C55.1298 17.147 53.4832 11.2686 44.4376 4.98159C37.2011 -0.0480059 28.4069 0.928897 24.1926 1.40943C13.0437 3.52772 6.91802 10.3648 4.52205 14.2692C-0.0221529 21.6743 0.693226 30.7487 1.93759 34.8448C5.843 45.3612 14.0941 51.5148 17.7315 53.2771C17.064 59.2533 18.9305 61.9682 19.4545 63.5649Z" fill="url(#paint0_linear_1433_449)" stroke="white" stroke-width="2"/>
<path d="M21.5319 6.39929C25.2148 5.10807 34.4167 3.99004 41.7624 9.84363C44.0103 11.4223 48.4191 16.3578 48.0749 23.4735C47.6445 25.482 46.2099 29.9868 43.9147 31.9384C43.293 32.8948 40.3267 35.8991 33.4401 40.2606C30.4276 41.8864 24.347 45.338 24.1149 46.1425C22.5368 47.2902 18.9811 50.0567 18.1774 53.2704L16.3669 52.5995C16.1756 52.1212 15.7639 50.8484 15.6491 49.5858L15.363 37.9647L9.76728 43.1298L8.76239 41.8387L8.72333 41.7762C9.39148 41.1 19.8955 30.4755 20.3122 30.4755C20.7444 30.478 24.0429 34.3495 24.3298 34.3495C24.639 34.327 40.112 19.1405 40.112 19.1405L42.5515 21.4364L43.4118 12.828L34.8034 14.6932L37.3854 16.9882C37.3854 16.9882 24.6242 29.5779 24.1862 29.4706C23.756 29.3553 20.0281 25.7445 19.738 25.7411C19.4603 25.7497 7.97313 36.8413 6.54071 38.2255C4.96625 34.3488 2.78738 25.3588 6.18036 19.0253C7.47206 15.6772 12.3501 8.4652 21.5319 6.39929ZM17.5856 35.9276V48.9833C19.4221 46.3434 22.2728 44.5357 23.4684 43.9618V36.2147C22.3207 36.2146 20.6947 34.3968 20.0251 33.4882L17.5856 35.9276ZM25.6208 36.0712V42.5272L31.6472 39.371V30.1884L25.6208 36.0712ZM33.9421 27.7489V38.08C35.6638 37.3912 38.5814 35.1145 39.8249 34.0624V22.7274L33.9421 27.7489ZM7.97333 28.6102C7.26027 28.6103 6.68238 29.1882 6.68231 29.9012C6.68231 30.6144 7.26023 31.1922 7.97333 31.1923C8.68649 31.1923 9.26435 30.6144 9.26435 29.9012C9.26428 29.1881 8.68645 28.6102 7.97333 28.6102ZM13.4255 26.8885C12.7124 26.8886 12.1345 27.4665 12.1345 28.1796C12.1345 28.8927 12.7124 29.4705 13.4255 29.4706C14.1386 29.4706 14.7165 28.8927 14.7165 28.1796C14.7164 27.4664 14.1386 26.8885 13.4255 26.8885ZM9.69501 22.5839C8.82356 22.584 8.11706 23.2906 8.11688 24.162C8.11688 25.0336 8.82345 25.74 9.69501 25.7401C10.5666 25.7401 11.2731 25.0336 11.2731 24.162C11.273 23.2905 10.5665 22.5839 9.69501 22.5839ZM20.7429 20.2889C19.6336 20.2889 18.7343 21.1876 18.7341 22.2968C18.7341 23.4061 19.6335 24.3055 20.7429 24.3055C21.8522 24.3055 22.7517 23.4061 22.7517 22.2968C22.7514 21.1876 21.8521 20.289 20.7429 20.2889ZM14.7165 19.7147C13.6073 19.7149 12.7087 20.6143 12.7087 21.7235C12.7088 22.8326 13.6074 23.7321 14.7165 23.7323C15.8258 23.7323 16.7251 22.8327 16.7253 21.7235C16.7253 20.6142 15.8259 19.7147 14.7165 19.7147ZM28.3474 12.828C25.891 12.828 23.8992 14.8189 23.8991 17.2753C23.8991 19.7317 25.8909 21.7235 28.3474 21.7235C30.8037 21.7234 32.7946 19.7316 32.7946 17.2753C32.7945 14.819 30.8036 12.8281 28.3474 12.828ZM9.98212 17.1317C9.26896 17.1317 8.6911 17.7105 8.6911 18.4237C8.69134 19.1367 9.26911 19.7147 9.98212 19.7147C10.6951 19.7147 11.2729 19.1367 11.2731 18.4237C11.2731 17.7105 10.6953 17.1317 9.98212 17.1317ZM20.7429 13.9755C19.6335 13.9755 18.7341 14.8749 18.7341 15.9843C18.7341 17.0936 19.6335 17.993 20.7429 17.993C21.8522 17.993 22.7516 17.0936 22.7517 15.9843C22.7517 14.8749 21.8522 13.9755 20.7429 13.9755ZM14.86 14.8368C14.147 14.837 13.569 15.4147 13.569 16.1278C13.5691 16.8408 14.1471 17.4187 14.86 17.4188C15.5732 17.4188 16.152 16.8409 16.152 16.1278C16.152 15.4146 15.5732 14.8368 14.86 14.8368ZM34.2292 8.2362C33.1201 8.23644 32.2214 9.13583 32.2214 10.245C32.2214 11.3542 33.12 12.2535 34.2292 12.2538C35.3385 12.2538 36.238 11.3543 36.238 10.245C36.2379 9.13569 35.3385 8.2362 34.2292 8.2362ZM26.4821 7.66296C25.3729 7.66296 24.4736 8.56162 24.4733 9.67077C24.4733 10.7801 25.3728 11.6796 26.4821 11.6796C27.5913 11.6794 28.4909 10.78 28.4909 9.67077C28.4907 8.56171 27.5912 7.66311 26.4821 7.66296ZM20.5993 8.81042C19.8863 8.81047 19.3084 9.38841 19.3083 10.1014C19.3083 10.8146 19.8862 11.3924 20.5993 11.3925C21.3125 11.3925 21.8903 10.8146 21.8903 10.1014C21.8902 9.38838 21.3124 8.81042 20.5993 8.81042Z" fill="white"/>
<defs>
<linearGradient id="paint0_linear_1433_449" x1="30.9998" y1="1.00085" x2="30.9998" y2="69.0009" gradientUnits="userSpaceOnUse">
<stop stop-color="#1925D8" stop-opacity="0.75"/>
<stop offset="1" stop-color="#891FB6" stop-opacity="0.75"/>
</linearGradient>
</defs>
</svg>
